<svg width="32" height="32" viewBox="0 0 32 32" fill="none" xmlns="http://www.w3.org/2000/svg">
<path d="M27.6156 16.6979C28.0075 16.6979 28.3333 16.3917 28.3333 16C28.3333 9.18848 22.8115 3.66666 16 3.66666C9.18848 3.66666 3.66666 9.18848 3.66666 16C3.66666 22.8115 9.18848 28.3333 16 28.3333C16.842 28.3333 17.6644 28.2489 18.4589 28.0881C19.7912 27.8187 20.1 26.1999 19.1404 25.2372C18.2049 24.2991 17.6797 23.0281 17.6797 21.7033C17.6797 18.9389 19.9207 16.6979 22.6851 16.6979H27.6156Z" stroke="#FEF5F5" stroke-width="2" stroke-linecap="round" stroke-linejoin="round"/>
<path d="M14.7631 8.91603C14.7631 9.28421 14.4645 9.58269 14.0964 9.58269C13.7281 9.58269 13.4297 9.28421 13.4297 8.91603C13.4297 8.54784 13.7281 8.24936 14.0964 8.24936C14.4645 8.24936 14.7631 8.54784 14.7631 8.91603ZM21.862 10.7975C21.862 11.1657 21.5635 11.4642 21.1953 11.4642C20.8271 11.4642 20.5287 11.1657 20.5287 10.7975C20.5287 10.4293 20.8271 10.1309 21.1953 10.1309C21.5635 10.1309 21.862 10.4293 21.862 10.7975ZM9.58074 14.1308C9.58074 14.4991 9.28226 14.7975 8.91407 14.7975C8.54587 14.7975 8.24741 14.4991 8.24741 14.1308C8.24741 13.7627 8.54587 13.4641 8.91407 13.4641C9.28226 13.4641 9.58074 13.7627 9.58074 14.1308ZM11.487 21.1941C11.487 21.5623 11.1885 21.8608 10.8203 21.8608C10.4521 21.8608 10.1536 21.5623 10.1536 21.1941C10.1536 20.826 10.4521 20.5275 10.8203 20.5275C11.1885 20.5275 11.487 20.826 11.487 21.1941Z" fill="#FEF5F5" stroke="#FEF5F5" stroke-width="2" stroke-linejoin="round"/>
</svg>
